<svg width="297" height="80" viewBox="0 0 297 80" fill="none" xmlns="http://www.w3.org/2000/svg">
<path d="M197.482 0V58.0887C204.648 58.4214 211.793 58.8253 218.92 59.3003V71.6162C207.617 70.8625 196.304 70.2906 184.983 69.9009V0H197.482ZM296.812 0.00695652L280.535 37.7426L296.808 79.7357L296.79 79.7432C292.045 79.0682 287.296 78.426 282.543 77.8168L273.405 54.2481L264.18 75.629C259.803 75.1455 255.424 74.6894 251.042 74.2609L266.91 37.4899L252.378 0.00753623H265.9L274.036 20.9838L283.083 0.00695652H296.812ZM142.083 69.2904V0.00637681H176.976V12.433H154.583V28.5374H171.526V40.8533H154.583V69.2881L142.083 69.2904ZM95.4087 12.4336V0.0057971H134.07V12.433H120.988V69.6272C116.816 69.7374 112.649 69.8661 108.49 70.0232V12.4336H95.4087ZM52.6771 73.6035V0.00811594H87.3959V12.4342H65.1751V29.2667C70.28 29.2012 77.5386 29.1275 82.0545 29.138V41.4551C76.4017 41.3855 70.0209 41.5327 65.1751 41.5809V60.2267C72.5766 59.6434 79.9839 59.1371 87.3959 58.7078V71.0249C75.8096 71.6934 64.235 72.5534 52.6771 73.6046M28.1571 45.1328L28.1565 0.0057971H40.6562V74.7652C36.087 75.2352 31.526 75.7345 26.9733 76.2632L12.4986 34.6806V78.0441C8.32464 78.5874 4.15845 79.1548 0 79.7461V0.00695652H11.8788L28.1571 45.1328ZM229.232 72.3588V0.00695652H241.732V73.3913C237.57 73.0203 233.405 72.6777 229.232 72.3588Z" fill="#DB202C"/>
</svg>
